<svg xmlns="http://www.w3.org/2000/svg" viewBox="0 0 462.1 96.282">
  <defs>
    <style>
      .cls-1, .cls-2, .cls-3, .cls-4, .cls-5 {
        fill: #fff;
      }

      .cls-2, .cls-3, .cls-4, .cls-5 {
        stroke: #fff;
      }

      .cls-2, .cls-3 {
        stroke-width: 6px;
      }

      .cls-3, .cls-4 {
        stroke-linejoin: round;
      }

      .cls-5 {
        stroke-linecap: round;
        stroke-width: 4px;
      }
    </style>
  </defs>
  <g id="logo" transform="translate(-323.97 -187.178)">
    <path id="Path_2669" data-name="Path 2669" class="cls-1" d="M47.67-37.45a3.745,3.745,0,0,1,2.835,1.225A4.359,4.359,0,0,1,51.66-33.11a6.123,6.123,0,0,1-.28,1.61L40.67-2.66a3.792,3.792,0,0,1-1.505,2A4.1,4.1,0,0,1,36.82.07L36.26,0a4.1,4.1,0,0,1-3.57-2.66L26.74-19.88,21.07-2.66A4.1,4.1,0,0,1,17.5,0l-.56.07A4.1,4.1,0,0,1,14.6-.665a3.792,3.792,0,0,1-1.505-2L2.38-31.5a4.674,4.674,0,0,1-.28-1.61,4.427,4.427,0,0,1,1.155-3.045A3.883,3.883,0,0,1,6.3-37.45a4.307,4.307,0,0,1,2.415.665A3.569,3.569,0,0,1,10.15-34.79l7.56,20.51,5.53-14.98a3.913,3.913,0,0,1,3.85-2.59,3.616,3.616,0,0,1,2.275.63,4.782,4.782,0,0,1,1.365,1.96l5.39,14.63,7.49-20.16a3.515,3.515,0,0,1,1.47-1.995A4.748,4.748,0,0,1,47.67-37.45Zm41.23-.7a4.079,4.079,0,0,1,3.01,1.19,4.168,4.168,0,0,1,1.19,3.08V-4.27a4.2,4.2,0,0,1-1.19,3.045A4.019,4.019,0,0,1,88.9,0a3.964,3.964,0,0,1-2.975-1.19A4.4,4.4,0,0,1,84.7-4.2,14.364,14.364,0,0,1,79.975-.735,14.243,14.243,0,0,1,73.71.7a16,16,0,0,1-8.75-2.485,17.422,17.422,0,0,1-6.195-6.9A21.516,21.516,0,0,1,56.49-18.69a22.01,22.01,0,0,1,2.24-10.045,17.211,17.211,0,0,1,6.125-6.93A15.59,15.59,0,0,1,73.43-38.15a16.214,16.214,0,0,1,6.3,1.225A16.544,16.544,0,0,1,84.7-33.81v-.07a4.2,4.2,0,0,1,1.19-3.045A4.019,4.019,0,0,1,88.9-38.15ZM74.76-7a9.347,9.347,0,0,0,7.42-3.325,12.346,12.346,0,0,0,2.87-8.365,12.481,12.481,0,0,0-2.87-8.4,9.306,9.306,0,0,0-7.42-3.36,9.232,9.232,0,0,0-7.35,3.36,12.481,12.481,0,0,0-2.87,8.4,12.442,12.442,0,0,0,2.835,8.365A9.245,9.245,0,0,0,74.76-7Zm66.57.14a4.123,4.123,0,0,1,1.435,1.47,3.732,3.732,0,0,1,.525,1.89,3.614,3.614,0,0,1-.84,2.31A3.953,3.953,0,0,1,139.23.07a6.285,6.285,0,0,1-3.08-.77q-5.04-2.87-5.04-11.69a5.081,5.081,0,0,0-1.645-3.99,6.864,6.864,0,0,0-4.725-1.47H111.65V-4.27a4.581,4.581,0,0,1-1.015,3.08A3.366,3.366,0,0,1,107.94,0,5.43,5.43,0,0,1,104.4-1.225a3.777,3.777,0,0,1-1.5-3.045V-44.73a4.134,4.134,0,0,1,1.225-3.045A4.134,4.134,0,0,1,107.17-49h20.16a12.974,12.974,0,0,1,6.86,1.96,14.466,14.466,0,0,1,5.145,5.39,15.459,15.459,0,0,1,1.925,7.7,13.649,13.649,0,0,1-1.89,6.825,15.06,15.06,0,0,1-4.9,5.285,10.725,10.725,0,0,1,4.83,8.26,11.769,11.769,0,0,1,.21,2.17,22.3,22.3,0,0,0,.56,3.115A2.308,2.308,0,0,0,141.33-6.86Zm-14.35-18.2a3.485,3.485,0,0,0,2.45-1.19,9.034,9.034,0,0,0,1.96-3.185,11.853,11.853,0,0,0,.77-4.305,8.4,8.4,0,0,0-.77-3.6,7.386,7.386,0,0,0-1.96-2.625,3.826,3.826,0,0,0-2.45-.98H111.65v15.89Zm56.56,5.46a3.594,3.594,0,0,1-1.33,2.73,4.453,4.453,0,0,1-2.94,1.05h-23.1a10.555,10.555,0,0,0,3.85,6.475A10.763,10.763,0,0,0,166.81-7a15.048,15.048,0,0,0,4.48-.525,11.668,11.668,0,0,0,2.555-1.12q.945-.595,1.295-.805a5.34,5.34,0,0,1,2.38-.63,3.437,3.437,0,0,1,2.52,1.05,3.358,3.358,0,0,1,1.05,2.45,4.369,4.369,0,0,1-1.96,3.43,16.725,16.725,0,0,1-5.25,2.73A20.512,20.512,0,0,1,167.23.7a20.647,20.647,0,0,1-10.255-2.45,17.1,17.1,0,0,1-6.755-6.755,19.7,19.7,0,0,1-2.38-9.7,21.462,21.462,0,0,1,2.52-10.57,17.893,17.893,0,0,1,6.65-6.965,17.188,17.188,0,0,1,8.82-2.415,16.352,16.352,0,0,1,8.715,2.52,18.837,18.837,0,0,1,6.545,6.79A18.253,18.253,0,0,1,183.54-19.6ZM165.83-30.45q-8.12,0-9.59,7.63h18.34v-.49a7.236,7.236,0,0,0-2.87-5.04A9.084,9.084,0,0,0,165.83-30.45Zm55.3-7.7a4.079,4.079,0,0,1,3.01,1.19,4.168,4.168,0,0,1,1.19,3.08V-4.27a4.2,4.2,0,0,1-1.19,3.045A4.019,4.019,0,0,1,221.13,0a3.964,3.964,0,0,1-2.975-1.19A4.4,4.4,0,0,1,216.93-4.2a14.364,14.364,0,0,1-4.725,3.465A14.243,14.243,0,0,1,205.94.7a16,16,0,0,1-8.75-2.485A17.422,17.422,0,0,1,191-8.68a21.516,21.516,0,0,1-2.275-10.01,22.01,22.01,0,0,1,2.24-10.045,17.211,17.211,0,0,1,6.125-6.93,15.59,15.59,0,0,1,8.575-2.485,16.214,16.214,0,0,1,6.3,1.225,16.544,16.544,0,0,1,4.97,3.115v-.07a4.2,4.2,0,0,1,1.19-3.045A4.019,4.019,0,0,1,221.13-38.15ZM206.99-7a9.347,9.347,0,0,0,7.42-3.325,12.346,12.346,0,0,0,2.87-8.365,12.481,12.481,0,0,0-2.87-8.4,9.306,9.306,0,0,0-7.42-3.36,9.232,9.232,0,0,0-7.35,3.36,12.481,12.481,0,0,0-2.87,8.4,12.442,12.442,0,0,0,2.835,8.365A9.245,9.245,0,0,0,206.99-7Zm57.75-44.8a4.079,4.079,0,0,1,3.01,1.19,4.168,4.168,0,0,1,1.19,3.08V-4.27a4.2,4.2,0,0,1-1.19,3.045A4.019,4.019,0,0,1,264.74,0a3.964,3.964,0,0,1-2.975-1.19A4.4,4.4,0,0,1,260.54-4.2a14.364,14.364,0,0,1-4.725,3.465A14.243,14.243,0,0,1,249.55.7a16,16,0,0,1-8.75-2.485,17.422,17.422,0,0,1-6.195-6.9,21.516,21.516,0,0,1-2.275-10.01,22.01,22.01,0,0,1,2.24-10.045,17.211,17.211,0,0,1,6.125-6.93,15.59,15.59,0,0,1,8.575-2.485,16.214,16.214,0,0,1,6.3,1.225,16.544,16.544,0,0,1,4.97,3.115V-47.53a4.2,4.2,0,0,1,1.19-3.045A4.019,4.019,0,0,1,264.74-51.8ZM250.6-7a9.347,9.347,0,0,0,7.42-3.325,12.346,12.346,0,0,0,2.87-8.365,12.481,12.481,0,0,0-2.87-8.4,9.306,9.306,0,0,0-7.42-3.36,9.232,9.232,0,0,0-7.35,3.36,12.481,12.481,0,0,0-2.87,8.4,12.442,12.442,0,0,0,2.835,8.365A9.245,9.245,0,0,0,250.6-7Zm61.04-12.6a3.594,3.594,0,0,1-1.33,2.73,4.453,4.453,0,0,1-2.94,1.05h-23.1a10.555,10.555,0,0,0,3.85,6.475A10.763,10.763,0,0,0,294.91-7a15.048,15.048,0,0,0,4.48-.525,11.667,11.667,0,0,0,2.555-1.12q.945-.595,1.3-.805a5.34,5.34,0,0,1,2.38-.63,3.437,3.437,0,0,1,2.52,1.05,3.358,3.358,0,0,1,1.05,2.45,4.369,4.369,0,0,1-1.96,3.43,16.725,16.725,0,0,1-5.25,2.73A20.512,20.512,0,0,1,295.33.7a20.647,20.647,0,0,1-10.255-2.45,17.1,17.1,0,0,1-6.755-6.755,19.7,19.7,0,0,1-2.38-9.7,21.462,21.462,0,0,1,2.52-10.57,17.892,17.892,0,0,1,6.65-6.965,17.188,17.188,0,0,1,8.82-2.415,16.352,16.352,0,0,1,8.715,2.52,18.837,18.837,0,0,1,6.545,6.79A18.253,18.253,0,0,1,311.64-19.6ZM293.93-30.45q-8.12,0-9.59,7.63h18.34v-.49a7.236,7.236,0,0,0-2.87-5.04A9.084,9.084,0,0,0,293.93-30.45Zm44.17-7.7a5.353,5.353,0,0,1,3.535,1.19,3.548,3.548,0,0,1,1.435,2.8,4.337,4.337,0,0,1-1.12,3.255,3.693,3.693,0,0,1-2.66,1.085,6.984,6.984,0,0,1-2.38-.49q-.21-.07-.945-.28a5.71,5.71,0,0,0-1.575-.21,6.221,6.221,0,0,0-3.5,1.12,8.172,8.172,0,0,0-2.765,3.4,12.5,12.5,0,0,0-1.085,5.425V-4.27a4.2,4.2,0,0,1-1.19,3.045A4.019,4.019,0,0,1,322.84,0a4.019,4.019,0,0,1-3.01-1.225,4.2,4.2,0,0,1-1.19-3.045V-33.18a4.2,4.2,0,0,1,1.19-3.045,4.019,4.019,0,0,1,3.01-1.225,4.019,4.019,0,0,1,3.01,1.225,4.2,4.2,0,0,1,1.19,3.045v.91a10.6,10.6,0,0,1,4.62-4.375A14.2,14.2,0,0,1,338.1-38.15Z" transform="translate(443 260)"/>
    <g id="Symbol_1_1" data-name="Symbol 1 – 1" transform="translate(-80 -5)">
      <g id="Group_1980" data-name="Group 1980" transform="translate(407 195.178)">
        <path id="Path_1138" data-name="Path 1138" class="cls-2" d="M302.657,222.308a1.449,1.449,0,0,0-1.858.914,39.936,39.936,0,0,1-4.778,9.675,1.47,1.47,0,0,0,.413,2.035,1.446,1.446,0,0,0,.826.265,1.539,1.539,0,0,0,1.239-.649,44.207,44.207,0,0,0,5.132-10.383A1.494,1.494,0,0,0,302.657,222.308Z" transform="translate(-216.103 -165.48)"/>
        <path id="Path_1139" data-name="Path 1139" class="cls-3" d="M48.078,117.474a44.947,44.947,0,0,0,50.712-2.74,1.519,1.519,0,1,0-1.857-2.4,41.808,41.808,0,0,1-47.273,2.557l-1.613-.974a1.609,1.609,0,0,0-1.187-.183L29.071,120.7l8.323-16.067a1.5,1.5,0,0,0-.183-1.248l-1.065-1.674A41.933,41.933,0,1,1,113.4,79.059a1.522,1.522,0,0,0,3.044,0A44.959,44.959,0,1,0,33.62,103.32l.7,1.1L25.479,122.4a1.578,1.578,0,0,0,.365,1.492,1.45,1.45,0,0,0,1.461.4l19.738-7.452Z" transform="translate(-25.42 -34.1)"/>
      </g>
      <path id="alpha-w-circle-outline" class="cls-4" d="M33.512,2A31.512,31.512,0,1,1,2,33.512,31.512,31.512,0,0,1,33.512,2m0,6.3a25.21,25.21,0,1,0,25.21,25.21A25.21,25.21,0,0,0,33.512,8.3Z" transform="translate(419 207)"/>
      <path id="Path_2668" data-name="Path 2668" class="cls-5" d="M21.175-1.89a1.028,1.028,0,0,1,.525.875,1.09,1.09,0,0,1-.14.455,1.017,1.017,0,0,1-.385.385,1.041,1.041,0,0,1-.525.14,1.182,1.182,0,0,1-.6-.14A3.948,3.948,0,0,1,18.48-2a10.039,10.039,0,0,1-.595-4.025A3.992,3.992,0,0,0,16.52-9.467a5.366,5.366,0,0,0-3.255-1H5.5V-1.05a1.054,1.054,0,0,1-.28.753A.963.963,0,0,1,4.48,0a1.254,1.254,0,0,1-.84-.3.945.945,0,0,1-.35-.753v-22.4a1.02,1.02,0,0,1,.3-.752,1.02,1.02,0,0,1,.752-.3h9.45a7.344,7.344,0,0,1,3.57.858,6.327,6.327,0,0,1,2.467,2.363,6.528,6.528,0,0,1,.893,3.395,6.757,6.757,0,0,1-1.172,3.938,5.922,5.922,0,0,1-3.063,2.328,5.365,5.365,0,0,1,2.52,2.013A6.106,6.106,0,0,1,20.02-6.16a12.762,12.762,0,0,0,.3,3.045A2.01,2.01,0,0,0,21.175-1.89ZM13.9-12.39a4.779,4.779,0,0,0,2.275-.8,5.079,5.079,0,0,0,1.68-1.89,5.747,5.747,0,0,0,.63-2.73,4.423,4.423,0,0,0-1.347-3.307,4.827,4.827,0,0,0-3.517-1.313H5.5V-12.39Z" transform="translate(440 253)"/>
    </g>
  </g>
</svg>
