<?xml version="1.0" standalone="no"?>
<!DOCTYPE svg PUBLIC "-//W3C//DTD SVG 20010904//EN"
 "http://www.w3.org/TR/2001/REC-SVG-20010904/DTD/svg10.dtd">
<svg version="1.0" xmlns="http://www.w3.org/2000/svg"
 width="700.000000pt" height="700.000000pt" viewBox="0 0 700.000000 700.000000"
 preserveAspectRatio="xMidYMid meet">
<metadata>
Created by potrace 1.11, written by Peter Selinger 2001-2013
</metadata>
<g transform="translate(0.000000,700.000000) scale(0.100000,-0.100000)"
fill="#000000" stroke="none">
<path d="M3460 6949 c-159 -14 -322 -37 -455 -64 -168 -35 -439 -123 -605
-197 -409 -182 -741 -413 -1040 -723 -113 -117 -193 -209 -252 -290 -4 -5 -18
-23 -31 -40 -74 -94 -220 -332 -295 -481 -129 -257 -245 -602 -288 -854 -2
-14 -7 -41 -10 -60 -11 -64 -13 -75 -23 -165 -20 -171 -28 -440 -16 -570 2
-27 7 -84 10 -125 4 -41 13 -113 21 -160 8 -47 17 -98 20 -115 2 -16 7 -37 9
-45 2 -8 6 -26 9 -40 37 -204 141 -500 266 -759 l80 -164 -44 -121 c-156 -431
-276 -728 -551 -1366 -87 -201 -179 -416 -206 -478 -27 -63 -49 -115 -49 -117
0 -4 52 16 105 40 48 21 496 203 650 262 319 124 875 327 1233 450 l163 56
117 -56 c410 -195 779 -293 1217 -323 250 -18 496 -4 775 42 350 57 760 210
1089 403 327 193 651 475 886 771 33 41 62 77 65 80 19 18 178 264 228 352
167 295 308 674 361 973 6 33 13 71 16 85 27 136 39 298 39 530 1 140 -2 284
-6 320 -32 283 -67 452 -153 725 -87 281 -286 661 -481 922 -60 79 -65 86
-149 183 -184 214 -452 448 -695 606 -322 210 -781 397 -1130 460 -131 24
-196 33 -340 50 -72 8 -458 11 -540 3z m410 -203 c161 -7 320 -29 517 -70 192
-40 443 -131 668 -241 412 -203 776 -500 1068 -875 353 -452 579 -1044 624
-1635 12 -161 6 -479 -11 -585 -3 -14 -7 -43 -10 -65 -19 -148 -65 -353 -111
-495 -155 -479 -392 -874 -735 -1220 -199 -201 -325 -304 -545 -445 -94 -60
-367 -203 -450 -236 -11 -5 -47 -19 -80 -32 -92 -37 -255 -89 -355 -113 -8 -2
-42 -10 -75 -18 -33 -8 -73 -17 -90 -19 -16 -3 -60 -10 -98 -16 -176 -29 -270
-36 -497 -35 -183 1 -290 7 -371 20 -15 2 -46 6 -68 9 -288 36 -677 163 -965
316 -52 27 -100 49 -108 49 -19 0 -487 -165 -923 -325 -185 -68 -316 -118
-653 -250 -106 -41 -197 -75 -202 -75 -5 0 -2 12 5 27 40 84 348 817 413 983
22 58 56 146 76 195 64 165 177 477 182 504 4 20 -9 53 -51 132 -288 526 -414
1104 -371 1702 3 48 8 102 10 120 6 41 19 130 21 137 0 3 4 28 9 55 25 166
110 450 191 639 185 434 421 763 790 1102 167 153 448 341 685 456 204 100
483 199 650 232 184 36 235 45 290 51 36 4 74 9 85 11 11 3 88 7 170 11 83 3
152 7 153 9 2 1 9 1 15 -1 7 -2 73 -6 147 -9z"/>
<path d="M2826 5400 c-17 -21 -17 -3093 0 -3110 16 -16 351 -17 367 -1 9 9 12
168 12 644 l1 632 69 3 c38 2 80 1 92 -3 19 -4 89 -87 396 -469 18 -22 47 -58
65 -80 39 -48 23 -28 197 -246 77 -96 180 -216 230 -265 171 -171 344 -250
522 -238 68 5 89 21 97 78 4 22 11 65 16 95 5 30 12 75 15 99 3 24 8 48 11 52
3 5 1 16 -4 25 -6 12 -27 17 -78 18 -154 6 -260 73 -415 261 -41 50 -76 92
-79 95 -3 3 -70 84 -150 180 -79 96 -164 200 -189 230 -25 30 -72 83 -104 117
-32 33 -55 63 -50 66 4 3 33 8 63 11 71 9 247 61 328 98 147 65 316 214 385
339 133 238 149 591 40 854 -114 273 -393 469 -726 511 -23 2 -55 7 -72 11
-16 3 -254 6 -528 7 -436 1 -499 0 -511 -14z m994 -354 c8 -3 26 -7 40 -10
120 -20 262 -89 340 -165 97 -95 142 -214 143 -376 0 -254 -100 -413 -314
-498 -140 -56 -171 -60 -509 -64 l-315 -5 2 559 c1 307 2 561 2 565 1 8 589 3
611 -6z"/>
</g>
</svg>
