<?xml version="1.0" standalone="no"?>
<!DOCTYPE svg PUBLIC "-//W3C//DTD SVG 20010904//EN"
 "http://www.w3.org/TR/2001/REC-SVG-20010904/DTD/svg10.dtd">
<svg version="1.0" xmlns="http://www.w3.org/2000/svg"
 width="400.000000pt" height="400.000000pt" viewBox="0 0 400.000000 400.000000"
 preserveAspectRatio="xMidYMid meet">
<metadata>
Created by potrace 1.11, written by Peter Selinger 2001-2013
</metadata>
<g transform="translate(0.000000,400.000000) scale(0.100000,-0.100000)"
fill="#000000" stroke="none">
<path d="M1830 3919 c-749 -77 -1392 -591 -1629 -1304 -119 -359 -132 -730
-36 -1100 34 -130 113 -327 176 -439 l50 -88 -22 -51 c-12 -28 -86 -181 -165
-340 -127 -255 -144 -294 -144 -338 0 -95 64 -170 156 -185 37 -5 84 10 427
139 l386 146 113 -59 c414 -213 899 -269 1350 -155 252 64 572 222 707 348 80
76 82 196 5 269 -38 35 -74 48 -133 48 -44 0 -60 -8 -162 -76 -141 -94 -261
-155 -393 -199 -439 -146 -896 -96 -1297 141 -101 60 -152 76 -202 64 -17 -4
-119 -42 -225 -84 -107 -42 -196 -76 -199 -76 -2 0 39 84 91 186 85 165 96
192 96 238 0 44 -7 63 -40 117 -207 333 -279 587 -267 939 9 251 52 422 163
645 108 216 287 427 479 563 107 76 310 178 426 215 383 122 796 94 1154 -78
298 -143 552 -390 703 -684 108 -209 157 -386 171 -621 10 -153 24 -196 75
-235 95 -72 213 -49 273 52 26 44 26 46 20 196 -18 442 -203 875 -516 1210
-404 430 -1006 656 -1591 596z"/>
<path d="M1868 3270 c-573 -65 -1036 -499 -1132 -1059 -20 -119 -21 -322 -1
-434 66 -378 294 -704 629 -900 95 -55 216 -102 344 -135 97 -24 124 -26 292
-26 168 0 195 2 292 26 452 114 797 435 932 867 46 146 59 248 53 426 -7 223
-43 363 -143 555 -143 277 -408 505 -712 614 -159 56 -392 84 -554 66z m376
-325 c375 -95 665 -410 726 -789 18 -109 8 -331 -19 -426 -76 -266 -269 -498
-516 -620 -156 -77 -237 -95 -435 -95 -198 0 -279 18 -435 95 -248 122 -439
351 -516 620 -27 96 -37 316 -19 427 68 423 419 759 849 813 99 13 262 2 365
-25z"/>
<path d="M1630 2547 c-19 -7 -44 -27 -57 -46 l-23 -34 0 -487 c0 -479 0 -488
21 -514 59 -75 167 -73 213 4 13 23 16 58 16 194 l0 166 124 0 c182 0 206 -13
206 -112 0 -74 26 -176 56 -219 72 -104 189 -117 244 -26 32 52 25 102 -22
153 -14 16 -21 45 -27 115 -9 99 -19 134 -51 179 l-20 28 34 51 c52 77 69 140
64 230 -10 165 -122 289 -287 321 -76 14 -447 12 -491 -3z m466 -252 c82 -34
77 -167 -7 -211 -20 -10 -64 -14 -159 -14 l-130 0 0 120 0 120 130 0 c92 0
141 -4 166 -15z"/>
<path d="M3564 1649 c-45 -13 -101 -74 -120 -133 -26 -79 -77 -186 -137 -288
-64 -107 -73 -140 -57 -199 32 -117 173 -171 273 -105 59 39 172 232 246 418
39 99 44 129 31 177 -27 102 -132 160 -236 130z"/>
</g>
</svg>
