<svg xmlns="http://www.w3.org/2000/svg" viewBox="0 0 135.467 135.467"><g font-family="sans-serif"><path d="M71.598.8C36.76.8 8.474 29.085 8.475 63.923v.006C8.5 74.66 11.32 85.18 16.55 94.54c.043.076.048.152.09.228-.03.085-.024.17-.054.254-4.193 11.585-4.534 12.77-14.516 35.75l-1.955 4.503 4.535-1.88c18.62-7.716 35.646-13.332 37.185-13.837.023-.007.042 0 .058-.005.02.01.038.007.057.017 9.126 4.867 19.292 7.468 29.646 7.473h.002c34.838 0 63.123-28.285 63.123-63.123C134.72 29.082 106.44.8 71.6.8zm0 3.97c32.693 0 59.154 26.46 59.154 59.152s-26.46 59.153-59.152 59.154c-10.018-.005-19.87-2.554-28.633-7.408l-.597-.332-.028-.015-.024-.01-.033-.02c-.02-.01-.046-.02-.07-.03-.02 0-.043.01-.064.01l-.04.02-.05.02-.065.024-.594.195s-16.085 5.39-33.84 12.52c7.696-17.8 8.955-21.12 13.153-32.7l.135-.374.093-.32.02-.18-.04-.188-.16-.275-.2-.34c-5.282-9.023-8.08-19.28-8.106-29.737v-.002c0-32.69 26.46-59.15 59.15-59.15z" style="line-height:normal;font-variant-ligatures:normal;font-variant-position:normal;font-variant-caps:normal;font-variant-numeric:normal;font-variant-alternates:normal;font-feature-settings:normal;text-indent:0;text-align:start;text-decoration-line:none;text-decoration-style:solid;text-decoration-color:#000000;text-transform:none;text-orientation:mixed;shape-padding:0;isolation:auto;mix-blend-mode:normal" color="#000" white-space="normal" overflow="visible" solid-color="#000000" fill="#09d261"/><text y="255.045" x="40.254" style="line-height:1.25" font-size="10.583" letter-spacing="0" word-spacing="0" stroke-width=".265" transform="translate(0 -161.533)"><tspan style="-inkscape-font-specification:Roboto" y="255.045" x="40.254" font-size="88.194" font-family="Roboto" fill="#fff000" fill-opacity="0">R</tspan></text><path style="-inkscape-font-specification:Anivers" d="M54.495 90.935V31.113l.45-.45h16.012q8.096 0 13.224 3.15 7.47 4.767 7.47 14.752 0 3.418-.99 6.297-.99 2.79-2.52 4.588-1.53 1.71-3.41 3.06-1.89 1.348-3.776 1.978-1.8.63-3.33 1.08-1.53.36-2.52.45l-.99.09 1.98 1.978L86.61 80.77q3.238 3.778 7.197 3.778h.45q.36-.09.54-.09l.36.45-.99 6.117-.54.45q-1.26.18-1.89.18-6.117 0-11.964-7.466L65.74 66.73l-.63-.36h-3.06v24.56l-.448.45h-6.657zM62.05 59.45h8.817q5.668 0 9.446-2.52 3.778-2.608 3.778-8.365 0-5.667-3.86-8.276-3.78-2.7-9.353-2.7h-8.82z" font-size="89.958" font-family="Anivers" letter-spacing="0" word-spacing="0" fill="#09d261"/></g></svg>